PathFileType	4	(X/Y/Z)	C:/Users/beibeiliu/ov580/test_trc/User3\sequence.6_training_dense_left.trc
DataRate	CameraRate	NumFrames	NumMarkers	Units	OrigDataRate	OrigDataStartFrame	OrigNumFrames
120	120	11	19	mm	120	171	195
Frame#	Time	ThumbCMC			ThumbMCP			ThumbIP			ThumbTip			IndexMCP			IndexPIP			IndexTip			MiddleMCP			MiddlePIP			MiddleTip			RingMCP			RingPIP			RingTip			PinkyMCP			PinkyPIP			PinkyTip			BackHand1			BackHand2			BackHand3	
		X0	Y0	Z0	X1	Y1	Z1	X2	Y2	Z2	X3	Y3	Z3	X4	Y4	Z4	X5	Y5	Z5	X6	Y6	Z6	X7	Y7	Z7	X8	Y8	Z8	X9	Y9	Z9	X10	Y10	Z10	X11	Y11	Z11	X12	Y12	Z12	X13	Y13	Z13	X14	Y14	Z14	X15	Y15	Z15	X16	Y16	Z16	X17	Y17	Z17	X18	Y18	Z18	
170	1.41667	-219.393	22.5376	9.3034	-213.043	45.9151	-17.9714	-190.23	55.0533	-36.5061	-162.669	44.3803	-32.9543	-189.233	15.3026	-58.7378	-180.953	46.2964	-59.8701	-186.88	46.6508	-24.2327	-170.851	15.0345	-51.2873	-163.13	46.1752	-41.356	-176.624	35.4432	-6.66539	-152.022	9.02257	-39.172	-147.437	38.2658	-30.814	-166.964	35.6557	-4.69826	-141.475	0.0631528	-30.812	-134.745	29.278	-28.5938	-145.473	36.194	-3.66389	-175.33	-27.9032	0.702467	-181.783	-27.9023	28.3765	-209.392	-13.4296	3.75966	
171	1.425	-221.735	20.409	5.80374	-215.587	42.509	-21.9405	-191.395	48.0834	-42.7513	-165.254	35.5345	-37.6224	-197.186	13.463	-62.1853	-184.511	41.5723	-62.6982	-194.646	42.0105	-27.8653	-172.524	11.361	-56.5475	-164.129	37.7974	-46.3962	-176.63	28.1484	-9.48651	-156.883	5.03277	-43.6849	-156.219	34.2729	-34.1805	-170.478	27.0048	-5.30533	-150.192	-8.25782	-32.6329	-142.126	19.96	-39.2358	-148.769	33.1499	-12.2075	-184.497	-30.9622	-6.05596	-186.473	-29.7017	28.408	-215.084	-14.8718	3.68339	
172	1.43333	-225.068	18.3292	13.3048	-222.012	37.4884	-17.9985	-197.779	38.3618	-44.7021	-174.607	28.4842	-41.1516	-203.17	4.80394	-60.114	-192.09	33.713	-63.5764	-198.871	37.4785	-29.6417	-184.956	2.87187	-56.3827	-176.02	34.6686	-50.6488	-186.969	29.4139	-14.6094	-165.45	-2.31544	-48.2788	-157.212	25.2008	-40.8022	-175.148	25.5387	-11.7907	-157.706	-18.0807	-39.5704	-145.068	4.45238	-50.747	-153.317	25.9963	-34.1496	-188.38	-32.1318	-0.183986	-188.122	-30.9564	31.2486	-219.177	-19.8234	8.07591	
173	1.44167	-229.366	19.4012	9.3909	-223.996	36.3284	-19.9401	-203.78	41.4248	-44.5588	-177.331	25.1547	-42.1782	-214.167	6.3109	-62.6411	-197.033	36.7288	-64.0378	-198.074	36.491	-33.076	-192.694	2.48085	-61.228	-177.449	31.9017	-51.4102	-185.013	24.1877	-15.6925	-171.736	-5.83626	-52.6942	-161.949	20.8029	-47.4829	-176.793	20.7481	-14.2417	-161.1	-18.2775	-43.6319	-153.805	7.35005	-49.0902	-156.921	22.4398	-24.0067	-194.286	-35.6699	-4.64578	-194.308	-37.0734	25.0666	-223.672	-21.5279	6.30816	
174	1.45	-224.311	16.6958	6.40643	-204.975	20.2683	-23.9541	-184.034	1.81597	-42.3518	-167.479	-15.7495	-36.2243	-229.091	5.02901	-57.4366	-212.761	29.9358	-59.6431	-203.505	44.0244	-30.8126	-209.678	-4.34794	-61.0632	-196.264	27.5581	-58.823	-190.047	38.5	-22.2354	-187.049	-14.9296	-55.229	-176.598	10.884	-60.5217	-179.918	33.8681	-36.4044	-171.199	-21.64	-42.5673	-169.314	3.47571	-52.9151	-170.837	28.8697	-32.4168	-201.427	-40.4015	-2.30244	-198.073	-34.2673	31.7878	-228.549	-23.8201	10.2856	
175	1.45833	-227.559	20.6777	15.8038	-221.861	41.2582	-13.7584	-202.508	35.4948	-39.6867	-179.656	17.1548	-44.7379	-230.326	0.356661	-52.7855	-213.361	30.0649	-62.8132	-207.631	35.7419	-30.0306	-215.988	-8.08383	-62.2365	-198.173	18.4406	-67.2588	-193.192	20.9499	-26.3386	-191.765	-11.9452	-52.4361	-177.091	12.1031	-49.2269	-185.728	16.1382	-16.9859	-182.081	-30.3024	-44.2805	-172.537	-3.87805	-54.9072	-168.125	7.54187	-30.9142	-206.438	-42.5818	-0.482886	-202.986	-36.8878	26.7318	-229.865	-19.4244	12.6302	
176	1.46667	-224.718	18.4914	24.3792	-222.107	41.8743	-8.97705	-208.383	44.1693	-37.3075	-188.831	23.7825	-44.9551	-238.157	7.35608	-51.4296	-219.159	34.3622	-56.6431	-211.93	35.1623	-28.533	-220.551	-3.94899	-58.9434	-205.895	23.2416	-63.2694	-195.343	22.3784	-24.7105	-200.287	-4.50015	-48.7286	-181.662	21.6246	-42.8737	-175.182	28.1329	-13.3911	-195.474	-28.9022	-45.8194	-188.164	-9.97075	-63.3095	-171.098	8.33842	-44.5103	-208.93	-40.4731	-1.9677	-203.518	-40.9487	27.2035	-231.028	-21.1452	14.3514	
177	1.475	-226.693	22.7949	23.5165	-212.677	38.8525	-6.88789	-201.896	50.496	-30.9866	-185.277	39.76	-51.9514	-244.284	14.8921	-46.7553	-219.918	38.5001	-50.4377	-211.357	31.5305	-19.8058	-223.196	3.05166	-50.8529	-200.498	28.3351	-49.3944	-191.485	27.9742	-10.5458	-201.348	-1.2624	-46.187	-187.04	20.3051	-36.4909	-180.476	23.0479	-3.68834	-201.344	-27.4778	-44.6427	-190.045	-1.3525	-57.1824	-177.263	6.66905	-33.1603	-220.637	-38.5569	-2.95851	-210.187	-41.971	28.3716	-242.624	-17.8716	17.0629	
178	1.48333	-214.552	22.8421	37.0045	-203.5	46.3663	11.8755	-194.016	61.2927	-15.9081	-186.188	48.0067	-39.5056	-237.368	40.2186	-32.7878	-208.132	51.7059	-36.1548	-198.472	36.0118	-8.9458	-225.474	23.4858	-39.4968	-195.134	35.83	-39.7186	-174.132	21.7058	-6.25257	-222.45	0.763945	-47.998	-192.639	14.8961	-48.7932	-190.666	13.9025	-17.1076	-198.362	-10.4913	-38.9167	-178.918	-0.0649954	-24.3012	-176.817	1.11238	0.736382	-237.483	-28.0621	0.0637464	-227.219	-39.5878	28.8218	-243.667	-6.62437	24.4718	
179	1.49167	-204.026	26.2047	40.3459	-192.081	46.7955	16.3008	-185.477	62.8124	-12.4049	-185.563	49.5659	-39.5133	-224.541	52.6593	-20.1804	-190.448	50.5377	-30.3526	-174.359	31.9021	-9.96596	-223.448	33.2412	-34.1123	-188.849	34.2199	-34.218	-183.776	13.5594	-1.29869	-226.088	15.6526	-41.4752	-196.009	18.3833	-42.403	-191.296	9.55864	-11.8694	-211.572	-4.53915	-35.9487	-187.654	-1.29429	-24.0242	-178.551	-7.96674	0.29702	-246.614	-8.16435	6.74422	-239.734	-26.7137	33.4082	-239.129	13.4908	37.4692	
180	1.5	-194.634	27.1786	46.258	-176.296	49.8199	26.3966	-177.786	50.3248	-9.58197	-184.311	29.5846	-28.7885	-217.887	65.0982	-9.63081	-185.426	65.8588	-20.249	-179.811	42.1514	0.524303	-213.496	48.4289	-27.545	-180.693	41.2696	-24.693	-186.53	20.4189	6.58456	-219.674	33.2443	-36.6529	-191.481	30.5696	-41.7274	-184.706	13.2094	-10.8318	-225.051	11.3298	-40.8552	-199.213	19.8503	-47.9865	-186.18	13.6032	-25.0873	-243.673	-0.232043	9.58009	-235.657	-23.4503	26.9788	-231.795	15.6295	38.095	
